<svg width="128" height="99" viewBox="0 0 128 99" fill="none" xmlns="http://www.w3.org/2000/svg">
<path d="M0 19.6364C0 16.0214 2.9305 13.0909 6.54545 13.0909H121.455C125.07 13.0909 128 16.0214 128 19.6364V91.6364C128 95.2513 125.07 98.1818 121.455 98.1818H6.54546C2.9305 98.1818 0 95.2513 0 91.6364V19.6364Z" fill="#D3DFE7"/>
<path d="M0 6.54545C0 2.9305 2.9305 0 6.54545 0H39.2727C42.8877 0 45.8182 2.9305 45.8182 6.54545V69.8182C45.8182 73.4331 42.8877 76.3636 39.2727 76.3636H6.54545C2.9305 76.3636 0 73.4331 0 69.8182V6.54545Z" fill="#D3DFE7"/>
<path d="M44.3635 2.18176L51.9215 14.1818H36.8055L44.3635 2.18176Z" fill="#D3DFE7"/>
</svg>
